<mxfile host="Electron" agent="Mozilla/5.0 (Windows NT 10.0; Win64; x64) AppleWebKit/537.36 (KHTML, like Gecko) draw.io/26.0.7 Chrome/128.0.6613.186 Electron/32.2.5 Safari/537.36" version="26.0.7">
  <diagram name="Page-1" id="29pmrc8Cf33cW1W7Qq05">
    <mxGraphModel dx="1050" dy="621" grid="1" gridSize="10" guides="1" tooltips="1" connect="1" arrows="1" fold="1" page="1" pageScale="1" pageWidth="850" pageHeight="1100" math="0" shadow="0">
      <root>
        <mxCell id="0" />
        <mxCell id="1" parent="0" />
        <mxCell id="WSBZRe88PFg6lUEUgbKR-1" style="edgeStyle=orthogonalEdgeStyle;rounded=0;orthogonalLoop=1;jettySize=auto;html=1;verticalAlign=middle;fontSize=18;" parent="1" source="WSBZRe88PFg6lUEUgbKR-2" target="WSBZRe88PFg6lUEUgbKR-5" edge="1">
          <mxGeometry relative="1" as="geometry" />
        </mxCell>
        <mxCell id="WSBZRe88PFg6lUEUgbKR-2" value="chờ khởi tạo" style="html=1;align=center;verticalAlign=middle;rounded=1;absoluteArcSize=1;arcSize=10;dashed=0;whiteSpace=wrap;fontSize=18;" parent="1" vertex="1">
          <mxGeometry x="100" y="65" width="140" height="40" as="geometry" />
        </mxCell>
        <mxCell id="WSBZRe88PFg6lUEUgbKR-4" style="edgeStyle=orthogonalEdgeStyle;rounded=0;orthogonalLoop=1;jettySize=auto;html=1;entryX=0.5;entryY=0;entryDx=0;entryDy=0;verticalAlign=middle;fontSize=18;" parent="1" source="WSBZRe88PFg6lUEUgbKR-5" target="WSBZRe88PFg6lUEUgbKR-11" edge="1">
          <mxGeometry relative="1" as="geometry" />
        </mxCell>
        <mxCell id="WSBZRe88PFg6lUEUgbKR-5" value="sẵn sàng" style="html=1;align=center;verticalAlign=middle;rounded=1;absoluteArcSize=1;arcSize=10;dashed=0;whiteSpace=wrap;fontSize=18;" parent="1" vertex="1">
          <mxGeometry x="360" y="65" width="140" height="40" as="geometry" />
        </mxCell>
        <mxCell id="WSBZRe88PFg6lUEUgbKR-6" value="Đã cấu hình xong kỳ thi" style="text;html=1;align=center;verticalAlign=middle;resizable=0;points=[];autosize=1;strokeColor=none;fillColor=none;fontSize=17;" parent="1" vertex="1">
          <mxGeometry x="205" y="31" width="200" height="30" as="geometry" />
        </mxCell>
        <mxCell id="WSBZRe88PFg6lUEUgbKR-26" style="edgeStyle=orthogonalEdgeStyle;rounded=0;orthogonalLoop=1;jettySize=auto;html=1;entryX=0.5;entryY=0;entryDx=0;entryDy=0;verticalAlign=middle;fontSize=18;" parent="1" source="WSBZRe88PFg6lUEUgbKR-11" target="WSBZRe88PFg6lUEUgbKR-24" edge="1">
          <mxGeometry relative="1" as="geometry" />
        </mxCell>
        <mxCell id="WSBZRe88PFg6lUEUgbKR-11" value="đang diễn ra" style="html=1;align=center;verticalAlign=middle;rounded=1;absoluteArcSize=1;arcSize=10;dashed=0;whiteSpace=wrap;fontSize=18;" parent="1" vertex="1">
          <mxGeometry x="360" y="162" width="140" height="40" as="geometry" />
        </mxCell>
        <mxCell id="WSBZRe88PFg6lUEUgbKR-12" value="đến thời gian&lt;div&gt;bắt đầu&lt;/div&gt;" style="text;html=1;align=center;verticalAlign=middle;resizable=0;points=[];autosize=1;strokeColor=none;fillColor=none;fontSize=17;" parent="1" vertex="1">
          <mxGeometry x="430" y="110" width="120" height="50" as="geometry" />
        </mxCell>
        <mxCell id="WSBZRe88PFg6lUEUgbKR-13" value="" style="ellipse;html=1;shape=endState;fillColor=strokeColor;verticalAlign=middle;fontSize=18;" parent="1" vertex="1">
          <mxGeometry x="10" y="268.5" width="30" height="27" as="geometry" />
        </mxCell>
        <mxCell id="WSBZRe88PFg6lUEUgbKR-14" style="edgeStyle=orthogonalEdgeStyle;rounded=0;orthogonalLoop=1;jettySize=auto;html=1;entryX=0;entryY=0.5;entryDx=0;entryDy=0;verticalAlign=middle;fontSize=18;" parent="1" source="WSBZRe88PFg6lUEUgbKR-15" target="WSBZRe88PFg6lUEUgbKR-2" edge="1">
          <mxGeometry relative="1" as="geometry" />
        </mxCell>
        <mxCell id="WSBZRe88PFg6lUEUgbKR-15" value="" style="ellipse;fillColor=strokeColor;html=1;verticalAlign=middle;fontSize=18;" parent="1" vertex="1">
          <mxGeometry y="70" width="30" height="30" as="geometry" />
        </mxCell>
        <mxCell id="WSBZRe88PFg6lUEUgbKR-30" style="edgeStyle=orthogonalEdgeStyle;rounded=0;orthogonalLoop=1;jettySize=auto;html=1;entryX=1;entryY=0.5;entryDx=0;entryDy=0;verticalAlign=middle;fontSize=18;" parent="1" source="WSBZRe88PFg6lUEUgbKR-24" target="WSBZRe88PFg6lUEUgbKR-29" edge="1">
          <mxGeometry relative="1" as="geometry" />
        </mxCell>
        <mxCell id="WSBZRe88PFg6lUEUgbKR-24" value="đã kết thúc" style="html=1;align=center;verticalAlign=middle;rounded=1;absoluteArcSize=1;arcSize=10;dashed=0;whiteSpace=wrap;fontSize=18;" parent="1" vertex="1">
          <mxGeometry x="360" y="262" width="140" height="40" as="geometry" />
        </mxCell>
        <mxCell id="WSBZRe88PFg6lUEUgbKR-27" value="hết thời gian" style="text;html=1;align=center;verticalAlign=middle;resizable=0;points=[];autosize=1;strokeColor=none;fillColor=none;fontSize=17;" parent="1" vertex="1">
          <mxGeometry x="427" y="216" width="120" height="30" as="geometry" />
        </mxCell>
        <mxCell id="WSBZRe88PFg6lUEUgbKR-32" style="edgeStyle=orthogonalEdgeStyle;rounded=0;orthogonalLoop=1;jettySize=auto;html=1;entryX=1;entryY=0.5;entryDx=0;entryDy=0;verticalAlign=middle;fontSize=18;" parent="1" source="WSBZRe88PFg6lUEUgbKR-29" target="WSBZRe88PFg6lUEUgbKR-13" edge="1">
          <mxGeometry relative="1" as="geometry" />
        </mxCell>
        <mxCell id="WSBZRe88PFg6lUEUgbKR-29" value="lưu trữ" style="html=1;align=center;verticalAlign=middle;rounded=1;absoluteArcSize=1;arcSize=10;dashed=0;whiteSpace=wrap;fontSize=18;" parent="1" vertex="1">
          <mxGeometry x="100" y="262" width="140" height="40" as="geometry" />
        </mxCell>
        <mxCell id="WSBZRe88PFg6lUEUgbKR-31" value="Lưu kết quả, thống kê&lt;div&gt;đóng kỳ thi&lt;/div&gt;" style="text;html=1;align=center;verticalAlign=middle;resizable=0;points=[];autosize=1;strokeColor=none;fillColor=none;fontSize=17;" parent="1" vertex="1">
          <mxGeometry x="205" y="228" width="190" height="50" as="geometry" />
        </mxCell>
      </root>
    </mxGraphModel>
  </diagram>
</mxfile>
